<svg class="MaestroLogo AppBar__logo" width="196" height="43" viewBox="0 0 196 43" fill="none" xmlns="http://www.w3.org/2000/svg">
  <g filter="url(#filter0_d)">
    <path d="M22.6985 37C18.9416 37 12.833 32.4802 11.6285 31.5763C5.31922 26.774 4 23.4689 4 21.548V2H41.397V21.548C41.397 23.4972 40.0778 26.8023 33.7685 31.6045C32.564 32.5085 26.4267 37 22.6985 37Z" fill="white"></path>
  </g>
  <path d="M6.35156 4.31641C6.35156 4.31641 6.35156 18.3277 6.35156 21.5198C6.35156 25.8983 18.8268 34.6836 22.6984 34.6836C26.57 34.6836 39.0453 25.8983 39.0453 21.5198C39.0453 18.3277 39.0453 4.31641 39.0453 4.31641H6.35156Z" fill="#00ADA2"></path>
  <path d="M39.1188 11.5198H16.3891V4.31641H13.4065V11.5198H7.95757H6.35156C6.35156 12.4802 6.35156 13.4972 6.35156 14.4576H7.95757H13.4065V15.5593V20.0226V30.0226C14.3816 30.7571 15.414 31.4351 16.3891 32.0565V20.0226V15.5593V14.4576H39.1188C39.1188 13.4972 39.1188 12.4802 39.1188 11.5198Z" fill="white"></path>
  <path d="M8.50244 12.9888L14.8978 19.3165L21.3218 12.9888L14.8978 6.66113L8.50244 12.9888Z" fill="white"></path>
  <path d="M14.9207 10.0206L11.9194 12.9768L14.9207 15.933L17.9219 12.9768L14.9207 10.0206Z" fill="#00ADA2"></path>
  <path d="M87.5414 25.6427V26.6602H77.752V25.6427L78.3549 25.5579C79.7041 25.3884 80.1922 24.9079 80.1922 23.3252V13.0093C80.1922 10.4657 78.929 9.08082 76.6898 9.08082C75.0821 9.08082 73.6755 9.87217 72.7855 10.9179C72.8716 11.3984 72.9003 11.9353 72.9003 12.4158V23.3252C72.9003 24.9079 73.4458 25.3884 74.7377 25.5579L75.3979 25.6427V26.6602H65.6659V25.6427L66.3262 25.5579C67.6468 25.3884 68.1348 24.9079 68.1348 23.3252V13.0093C68.1348 10.4657 66.8717 9.08082 64.6899 9.08082C63.1396 9.08082 61.8191 9.81564 60.8717 10.7483V23.2969C60.8717 24.9079 61.3597 25.3884 62.709 25.5579L63.3119 25.6427L63.3406 26.6602H53.5512V25.6427L54.154 25.5579C55.5607 25.3601 56.0775 24.9079 56.0775 23.2969V11.681C56.0775 10.1548 55.5894 9.61781 53.5225 9.22213V8.37425L60.3837 6.59371H60.7282V9.90043C61.8478 8.23294 64.1444 6.45239 67.13 6.45239C70.2592 6.45239 71.8956 8.11989 72.5558 10.1265C73.5893 8.43078 75.886 6.45239 79.1013 6.45239C83.4936 6.45239 84.9864 9.53302 84.9864 12.3875V23.2969C84.9864 24.8796 85.4744 25.3601 86.8811 25.5297L87.5414 25.6427Z" fill="#454547"></path>
  <path d="M107.723 24.4557V25.1905C106.603 26.4058 104.967 26.9711 103.618 26.9711C101.321 26.9711 100.46 25.5579 100.259 24.1731C99.0533 25.784 96.9576 27.0558 94.6322 27.0558C91.3882 27.0558 89.0342 24.7383 89.0342 21.7425C89.0342 19.001 90.8141 17.7857 94.46 16.6552L100.202 14.9029V12.0767C100.202 8.91124 99.0533 7.5829 97.1585 7.5829C95.5222 7.5829 95.0916 8.60035 94.4026 10.8331C94.0007 12.2462 93.283 12.5854 92.2208 12.5854C90.8715 12.5854 89.838 11.7658 89.4648 11.1157C90.0103 9.13734 92.594 6.45239 97.3882 6.45239C102.9 6.45239 104.881 9.19387 104.881 12.2745V22.7034C104.881 24.0883 105.426 24.6818 106.603 24.6818C107.063 24.71 107.522 24.597 107.723 24.4557ZM100.202 23.1839V16.2595L96.2973 17.5031C94.2303 18.1814 93.5987 19.001 93.5987 20.6968C93.5987 22.6751 94.8332 24.5687 97.1011 24.5687C98.393 24.597 99.5126 24.0317 100.202 23.1839Z" fill="#454547" ></path>
  <path d="M126.412 20.7533C124.718 25.1905 121.675 27.1689 118.115 27.1689C112.89 27.1689 109.13 23.2121 109.13 17.3052C109.13 10.7483 113.493 6.50891 118.173 6.50891C123.598 6.50891 126.153 10.3809 126.153 14.2246C126.153 14.5355 126.153 14.8746 126.125 15.2703H113.465C113.493 21.149 116.622 23.4382 120.067 23.4382C122.536 23.4382 124.173 22.4208 125.694 20.3293L126.412 20.7533ZM113.465 13.8572H121.646C121.445 10.2961 120.211 7.83725 117.828 7.83725C115.646 7.83725 113.809 9.98521 113.465 13.8572Z" fill="#454547" ></path>
  <path d="M129.283 25.5862L129.455 19.5663H130.603C131.436 22.8447 133.359 25.784 136.632 25.784C138.842 25.784 140.278 24.5405 140.278 22.4773C140.278 20.5837 138.929 19.8489 136.287 18.7466L134.967 18.2096C131.522 16.7965 129.426 15.553 129.426 12.3875C129.426 8.99603 132.728 6.45239 136.862 6.45239C139.445 6.45239 141.627 7.01765 142.948 7.55464L142.833 12.7267H141.685C140.938 10.0983 139.503 7.78074 136.603 7.78074C134.622 7.78074 133.244 9.02429 133.244 10.6918C133.244 12.2745 134.278 13.0658 137.063 14.2246L138.383 14.7616C142.402 16.3726 144.268 17.7574 144.211 20.8381C144.211 24.4839 141.053 27.1972 136.517 27.1972C133.474 27.1689 130.948 26.4058 129.283 25.5862Z" fill="#454547" ></path>
  <path d="M148.402 22.2512V8.93948H145.618V7.89376C148.603 7.04588 150.469 4.72835 151.532 2.01514H153.168V7.01762H158.335L157.847 8.91122H153.168V21.375C153.168 23.4665 154.144 24.4839 156.125 24.4839C156.986 24.4839 157.847 24.2861 158.68 23.9187V24.9361C157.331 26.2645 155.35 27.0841 153.369 27.0841C150.326 27.0841 148.402 25.4731 148.402 22.2512Z" fill="#454547" ></path>
  <path d="M176.163 8.28945C175.847 9.53301 174.813 11.1722 173.378 11.1722C172.804 11.1722 172.316 11.0027 171.656 10.6918C170.995 10.3809 170.593 10.2113 170.019 10.2113C168.9 10.2113 168.096 11.2288 167.608 12.5288V23.3252C167.608 24.9927 168.354 25.3883 170.479 25.5862L171.225 25.671V26.6884H160.287V25.671L160.89 25.5862C162.297 25.3883 162.814 24.9361 162.814 23.3252V11.681C162.814 10.1548 162.326 9.61779 160.259 9.16559V8.34597L167.12 6.56543H167.436V11.2288C168.182 9.19385 169.933 6.62195 172.603 6.62195C174.325 6.62195 175.646 7.61115 176.163 8.28945Z" fill="#454547" ></path>
  <path d="M175.732 16.9378C175.732 10.7766 180.412 6.50891 185.837 6.50891C191.263 6.50891 196 10.6353 196 16.7965C196 22.9012 191.263 27.1972 185.837 27.1972C180.412 27.1689 175.732 23.0425 175.732 16.9378ZM190.718 17.5879C190.718 12.1332 188.708 7.83725 185.579 7.83725C182.536 7.83725 180.928 11.3701 180.928 16.0899C180.928 20.9794 182.766 25.8123 186.067 25.8123C189.11 25.8123 190.718 22.336 190.718 17.5879Z" fill="#454547" ></path>
  <defs>
    <filter id="filter0_d" x="0" y="0" width="45.397" height="43" filterUnits="userSpaceOnUse" color-interpolation-filters="sRGB">
      <feFlood flood-opacity="0" result="BackgroundImageFix"></feFlood>
      <feColorMatrix in="SourceAlpha" type="matrix" values="0 0 0 0 0 0 0 0 0 0 0 0 0 0 0 0 0 0 127 0"></feColorMatrix>
      <feOffset dy="2"></feOffset>
      <feGaussianBlur stdDeviation="2"></feGaussianBlur>
      <feColorMatrix type="matrix" values="0 0 0 0 0 0 0 0 0 0 0 0 0 0 0 0 0 0 0.1 0"></feColorMatrix>
      <feBlend mode="normal" in2="BackgroundImageFix" result="effect1_dropShadow"></feBlend>
      <feBlend mode="normal" in="SourceGraphic" in2="effect1_dropShadow" result="shape"></feBlend>
    </filter>
  </defs>
</svg>