<svg width="21" height="20" viewBox="0 0 43 40" fill="none" xmlns="http://www.w3.org/2000/svg"><path d="M21.035 40c-4.227 0-11.098-5.166-12.453-6.199C1.484 28.313 0 24.536 0 22.341V0h42.069v22.34c0 2.228-1.484 6.005-8.582 11.494C32.132 34.867 25.228 40 21.034 40z" fill="#fff"></path><path d="M2.646 2.647v19.661c0 5.004 14.033 15.045 18.389 15.045 4.355 0 18.389-10.04 18.389-15.045V2.648H2.646z" fill="#00ADA2"></path><path d="M39.506 10.88H13.937V2.647h-3.355v8.233H2.646v3.357h7.936v17.789c1.097.84 2.258 1.614 3.355 2.324V14.237h25.57V10.88z" fill="#fff"></path><path d="M5.065 12.559l7.194 7.231 7.227-7.231-7.227-7.232-7.194 7.232z" fill="#fff"></path><path d="M12.285 9.166l-3.376 3.379 3.376 3.379 3.376-3.38-3.376-3.378z" fill="#00ADA2"></path></svg>