<svg width="25" height="24" viewBox="0 0 25 24" xmlns="http://www.w3.org/2000/svg">
  <path fill-rule="evenodd" clip-rule="evenodd" d="M3.604 0a3 3 0 0 0-3 3v18a3 3 0 0 0 3 3h18a3 3 0 0 0 3-3V3a3 3 0 0 0-3-3h-18zm1.235 5.311c0-1.029.78-1.811 1.974-1.811 1.193 0 1.926.782 1.95 1.811 0 1.007-.757 1.813-1.973 1.813h-.024c-1.169 0-1.927-.806-1.927-1.813zm16.265 13.73v-6.013c0-3.22-1.72-4.72-4.014-4.72-1.852 0-2.68 1.02-3.143 1.733V8.555H10.46c.047.984 0 10.487 0 10.487h3.488v-5.857c0-.314.023-.626.115-.85.252-.627.826-1.275 1.789-1.275 1.262 0 1.766.962 1.766 2.371v5.61h3.486zm-7.157-9v.034h-.023a.417.417 0 0 0 .023-.034zm-8.9 9h3.486V8.556H5.046v10.487z">
  </path>
</svg>