<svg width="26" height="20" viewBox="0 0 26 20" xmlns="http://www.w3.org/2000/svg">
  <path fill-rule="evenodd" clip-rule="evenodd" d="M25.06.66c-1.015.56-2.112.95-3.29 1.167C20.753.8 19.493.286 17.987.286c-1.408 0-2.62.483-3.634 1.448-1.015.965-1.522 2.117-1.522 3.456 0 .373.049.747.147 1.12a14.852 14.852 0 0 1-5.917-1.494c-1.85-.903-3.413-2.117-4.69-3.643a4.413 4.413 0 0 0-.737 2.476c0 1.743.77 3.098 2.308 4.063a4.637 4.637 0 0 1-2.308-.607v.093c0 1.152.385 2.18 1.154 3.082.77.903 1.76 1.48 2.971 1.729a6.87 6.87 0 0 1-1.375.14c-.327 0-.655-.031-.982-.094.36.997.974 1.814 1.842 2.452.867.638 1.858.958 2.97.958-1.865 1.4-3.993 2.101-6.383 2.101-.393 0-.802-.015-1.228-.046 2.423 1.463 5.058 2.195 7.906 2.195 2.292 0 4.387-.42 6.286-1.261s3.446-1.939 4.64-3.293a15.384 15.384 0 0 0 2.775-4.483c.655-1.635.982-3.278.982-4.928v-.607a10.256 10.256 0 0 0 2.554-2.569c-.95.405-1.932.67-2.947.794 1.113-.653 1.866-1.556 2.26-2.708z">
  </path>
</svg>